<svg width="28" height="32" viewBox="0 0 28 32" fill="none" xmlns="http://www.w3.org/2000/svg">
<g clip-path="url(#clip0_23_4451)">
<path d="M24.3564 27.6437C25.0386 27.6437 25.6397 27.2285 25.8897 26.5833L27.6763 21.9539C27.8384 21.5352 27.7877 21.0822 27.5378 20.7116C27.2879 20.341 26.8927 20.1282 26.4503 20.1282H22.4617C21.5971 18.1344 20.209 16.4322 18.4326 15.1899C17.0074 14.1947 15.4031 13.5496 13.7212 13.2819C16.4062 12.5029 18.3785 9.98742 18.3785 7.0121C18.3752 3.41221 15.4977 0.488373 11.9583 0.488373C8.41888 0.488373 5.54142 3.41221 5.54142 7.00867C5.54142 9.98399 7.51377 12.5029 10.2021 13.2819C5.03483 14.1021 0.924654 18.481 0.522756 23.9203C0.495737 24.2703 0.61732 24.6203 0.850354 24.8743C1.08339 25.1317 1.41774 25.2792 1.76223 25.2792H16.619C16.7439 25.8626 16.8824 26.4941 17.0378 27.2113V28.0075C17.0378 28.6115 17.443 29.1193 17.9902 29.2703C17.9091 29.4591 17.8652 29.665 17.8652 29.8846C17.8652 30.7323 18.544 31.422 19.3782 31.422C20.2124 31.422 20.8913 30.7323 20.8913 29.8846C20.8913 29.6856 20.8541 29.4934 20.7832 29.3184H23.154C23.0865 29.4934 23.046 29.6856 23.046 29.8846C23.046 30.7323 23.7248 31.422 24.559 31.422C25.3932 31.422 26.072 30.7323 26.072 29.8846C26.072 29.6719 26.0281 29.4694 25.9538 29.2875C26.1328 29.2189 26.2612 29.0404 26.2612 28.8345C26.2612 28.5668 26.0484 28.3506 25.785 28.3506H18.3279C18.1489 28.3506 17.9935 28.1962 17.9935 28.0109V27.6471H24.3564V27.6437ZM26.7475 21.2538C26.8184 21.3602 26.8319 21.4734 26.7846 21.5935L24.9981 26.223C24.89 26.5009 24.6502 26.6691 24.3564 26.6691H17.899C17.5781 25.2037 16.8588 21.7789 16.7135 21.0925H26.4503C26.5786 21.0925 26.6766 21.144 26.7475 21.2538ZM6.4972 7.00867C6.4972 3.94756 8.94574 1.45955 11.9583 1.45955C14.9708 1.45955 17.4194 3.95099 17.4194 7.00867C17.4194 10.0663 14.9675 12.5578 11.9583 12.5578C8.94574 12.5578 6.4972 10.0663 6.4972 7.00867ZM1.76223 24.3081C1.68117 24.3081 1.60349 24.2737 1.54946 24.2154C1.49542 24.1571 1.4684 24.0781 1.47515 23.9923C1.88381 18.4501 6.49044 14.1124 11.9583 14.1124C16.0077 14.1124 19.6417 16.4494 21.408 20.1248H16.5041C16.4265 19.761 16.342 19.3732 16.2508 18.958C16.2036 18.7349 16.0077 18.5805 15.7848 18.5805H14.3156C14.0522 18.5805 13.8395 18.7967 13.8395 19.0644C13.8395 19.332 14.0522 19.5482 14.3156 19.5482H15.4031C15.724 21.017 16.3353 23.9306 16.4163 24.3081H1.76223ZM19.9355 29.8846C19.9355 30.1969 19.6856 30.4509 19.3782 30.4509C19.0709 30.4509 18.821 30.1969 18.821 29.8846C18.821 29.5723 19.0709 29.3184 19.3782 29.3184C19.6856 29.3184 19.9355 29.5723 19.9355 29.8846ZM24.559 30.4509C24.2517 30.4509 24.0017 30.1969 24.0017 29.8846C24.0017 29.5723 24.2517 29.3184 24.559 29.3184C24.8663 29.3184 25.1163 29.5723 25.1163 29.8846C25.1163 30.1969 24.8663 30.4509 24.559 30.4509ZM23.252 25.0871L23.9511 22.4309C24.0186 22.1735 24.2821 22.0191 24.5354 22.0877C24.7887 22.1564 24.9406 22.424 24.8731 22.6814L24.174 25.3376C24.1166 25.5538 23.9241 25.6979 23.7147 25.6979C23.6742 25.6979 23.6336 25.691 23.5897 25.6807C23.333 25.6121 23.1844 25.3444 23.252 25.0871ZM21.7592 25.1694L21.9923 22.5133C22.0159 22.2456 22.2456 22.05 22.509 22.074C22.7724 22.098 22.9649 22.3348 22.9413 22.599L22.7082 25.2552C22.6846 25.5092 22.4786 25.6979 22.232 25.6979C22.2185 25.6979 22.205 25.6979 22.1881 25.6979C21.9247 25.6739 21.7322 25.4371 21.7558 25.1728L21.7592 25.1694ZM18.1151 22.6814C18.0476 22.424 18.1995 22.1564 18.4528 22.0877C18.7061 22.0191 18.9696 22.1735 19.0371 22.4309L19.7362 25.0871C19.8038 25.3444 19.6518 25.6121 19.3985 25.6807C19.358 25.691 19.3141 25.6979 19.2735 25.6979C19.0641 25.6979 18.8683 25.5538 18.8108 25.3376L18.1117 22.6814H18.1151ZM20.0469 22.599C20.0233 22.3314 20.2158 22.098 20.4792 22.074C20.7427 22.05 20.9723 22.2456 20.996 22.5133L21.229 25.1694C21.2526 25.4371 21.0601 25.6705 20.7967 25.6945C20.7832 25.6945 20.7697 25.6945 20.7528 25.6945C20.5096 25.6945 20.3002 25.5057 20.2766 25.2518L20.0436 22.5956L20.0469 22.599Z" fill="#F5F5F5"/>
</g>
<defs>
<clipPath id="clip0_23_4451">
<rect width="27.2481" height="30.9302" fill="white" transform="translate(0.519531 0.488373)"/>
</clipPath>
</defs>
</svg>
