<svg width="29" height="29" viewBox="0 0 29 29" fill="none" xmlns="http://www.w3.org/2000/svg">
<g clip-path="url(#clip0_23_4431)">
<path d="M27.4691 13.5847H11.6112C10.8416 13.5847 10.212 14.2128 10.212 14.9805V25.6809H9.27914V13.5847H8.34632V15.4457H6.39907C6.02594 15.4457 5.6703 15.5911 5.40795 15.8528L1.2919 19.9643C1.02954 20.226 0.883789 20.5807 0.883789 20.9529V25.2156C0.883789 25.9833 1.51344 26.6113 2.28301 26.6113H2.79606C3.05259 27.8675 4.28857 28.6816 5.54787 28.4258C6.4632 28.2397 7.1803 27.5244 7.36686 26.6113H21.9188C22.1753 27.8675 23.4113 28.6816 24.6706 28.4258C25.5859 28.2397 26.303 27.5244 26.4896 26.6113H27.4691C28.2386 26.6113 28.8683 25.9833 28.8683 25.2156V14.9805C28.8683 14.2128 28.2386 13.5847 27.4691 13.5847ZM5.08146 27.5418C4.30606 27.5418 3.68224 26.9196 3.68224 26.1461C3.68224 25.3727 4.30606 24.7504 5.08146 24.7504C5.85687 24.7504 6.48069 25.3727 6.48069 26.1461C6.48069 26.9196 5.85104 27.5418 5.08146 27.5418ZM8.34632 25.6809H7.36686C7.11034 24.4247 5.87436 23.6106 4.61506 23.8665C3.69973 24.0525 2.98263 24.7678 2.79606 25.6809H2.28301C2.02649 25.6809 1.81661 25.4715 1.81661 25.2156V21.0285H8.34632V25.6809ZM8.34632 20.098H2.47541L6.07258 16.5099C6.16003 16.4227 6.27663 16.3762 6.4049 16.3762H8.34632V20.098ZM15.3424 14.5152H17.6745V18.7023H15.3424V14.5152ZM24.2042 27.5418C23.4288 27.5418 22.805 26.9196 22.805 26.1461C22.805 25.3727 23.4288 24.7504 24.2042 24.7504C24.9796 24.7504 25.6034 25.3727 25.6034 26.1461C25.6034 26.9196 24.9738 27.5418 24.2042 27.5418ZM27.9355 25.2156C27.9355 25.4715 27.7256 25.6809 27.4691 25.6809H26.4896C26.2331 24.4247 24.9971 23.6106 23.7378 23.8665C22.8225 24.0525 22.1054 24.7678 21.9188 25.6809H11.1448V14.9805C11.1448 14.7246 11.3547 14.5152 11.6112 14.5152H14.4096V19.6328H18.6073V14.5152H27.4691C27.7256 14.5152 27.9355 14.7246 27.9355 14.9805V25.2156Z" fill="#F5F5F5"/>
<path d="M5.54781 25.6809H4.61499V26.6113H5.54781V25.6809Z" fill="#F5F5F5"/>
<path d="M24.6706 25.6809H23.7378V26.6113H24.6706V25.6809Z" fill="#F5F5F5"/>
<path d="M7.41339 21.959H6.01416V22.8895H7.41339V21.959Z" fill="#F5F5F5"/>
<path d="M15.3425 5.21051H14.4097V12.6543H15.3425V5.21051Z" fill="#F5F5F5"/>
<path d="M18.1409 8.46716C17.3714 8.46716 16.7417 9.09523 16.7417 9.86287V12.6543H17.6745V9.86287C17.6745 9.60699 17.8844 9.39763 18.1409 9.39763H24.2042C24.9738 9.39763 25.6035 8.76956 25.6035 8.00192V5.21051H24.6706V8.00192C24.6706 8.2578 24.4608 8.46716 24.2042 8.46716H18.1409Z" fill="#F5F5F5"/>
<path d="M13.4768 6.60622H12.0776V3.15185L14.876 1.55841L17.6745 3.15185V6.60622H16.2753V7.53669H18.6073V2.61683L14.876 0.488373L11.1448 2.61683V7.53669H13.4768V6.60622Z" fill="#F5F5F5"/>
<path d="M15.8087 2.88434H13.9431V3.81481H15.8087V2.88434Z" fill="#F5F5F5"/>
<path d="M26.0697 2.88434H24.2041V3.81481H26.0697V2.88434Z" fill="#F5F5F5"/>
<path d="M25.137 0.488373L21.4058 2.61683V7.53669H23.7378V6.60622H22.3386V3.15185L25.137 1.55841L27.9355 3.15185V6.60622H26.5363V7.53669H28.8683V2.61683L25.137 0.488373Z" fill="#F5F5F5"/>
<path d="M13.0104 12.6543V9.86287C13.0104 9.09523 12.3808 8.46716 11.6112 8.46716H5.54791C5.29138 8.46716 5.0815 8.2578 5.0815 8.00192V5.21051H4.14868V8.00192C4.14868 8.76956 4.77833 9.39763 5.54791 9.39763H11.6112C11.8677 9.39763 12.0776 9.60699 12.0776 9.86287V12.6543H13.0104Z" fill="#F5F5F5"/>
<path d="M5.54776 2.88434H3.68213V3.81481H5.54776V2.88434Z" fill="#F5F5F5"/>
<path d="M3.21583 6.60622H1.81661V3.15185L4.61506 1.55841L7.41351 3.15185V6.60622H6.01428V7.53669H8.34632V2.61683L4.61506 0.488373L0.883789 2.61683V7.53669H3.21583V6.60622Z" fill="#F5F5F5"/>
</g>
<defs>
<clipPath id="clip0_23_4431">
<rect width="27.9845" height="27.9845" fill="white" transform="translate(0.883789 0.488373)"/>
</clipPath>
</defs>
</svg>
