<svg width="34" height="29" viewBox="0 0 34 29" fill="none" xmlns="http://www.w3.org/2000/svg">
<g clip-path="url(#clip0_23_4455)">
<path d="M30.6423 17.7293H30.0352C30.0928 17.5655 30.1245 17.3887 30.1245 17.2053V14.0613C30.1245 13.1947 29.4274 12.4893 28.5711 12.4893H25.4644C24.6081 12.4893 23.9111 13.1947 23.9111 14.0613V17.2053C23.9111 17.3887 23.9428 17.5655 24.0004 17.7293H19.6801C19.7377 17.5655 19.7694 17.3887 19.7694 17.2053V14.0613C19.7694 13.1947 19.0724 12.4893 18.2161 12.4893H15.1094C14.2531 12.4893 13.556 13.1947 13.556 14.0613V17.2053C13.556 17.3887 13.5877 17.5655 13.6453 17.7293H9.32505C9.38265 17.5655 9.41437 17.3887 9.41437 17.2053V14.0613C9.41437 13.1947 8.7173 12.4893 7.86101 12.4893H4.7543C3.89802 12.4893 3.20095 13.1947 3.20095 14.0613V17.2053C3.20095 17.3887 3.23266 17.5655 3.29027 17.7293H2.68316C1.25537 17.7293 0.0942383 18.9044 0.0942383 20.3493C0.0942383 21.4215 0.73435 22.3444 1.64759 22.7499V27.6853C1.64759 27.9748 1.8793 28.2093 2.16538 28.2093H31.1613C31.4474 28.2093 31.6791 27.9748 31.6791 27.6853V22.7499C32.5924 22.3444 33.2325 21.4215 33.2325 20.3493C33.2325 18.9044 32.0713 17.7293 30.6436 17.7293H30.6423ZM24.9466 14.0613C24.9466 13.7724 25.179 13.5373 25.4644 13.5373H26.5V14.5853C26.5 14.8748 26.7317 15.1093 27.0178 15.1093C27.3038 15.1093 27.5356 14.8748 27.5356 14.5853V13.5373H28.5711C28.8565 13.5373 29.0889 13.7724 29.0889 14.0613V17.2053C29.0889 17.4941 28.8565 17.7293 28.5711 17.7293H25.4644C25.179 17.7293 24.9466 17.4941 24.9466 17.2053V14.0613ZM14.5909 14.0613C14.5909 13.7724 14.8233 13.5373 15.1087 13.5373H16.1443V14.5853C16.1443 14.8748 16.376 15.1093 16.6621 15.1093C16.9481 15.1093 17.1798 14.8748 17.1798 14.5853V13.5373H18.2154C18.5008 13.5373 18.7332 13.7724 18.7332 14.0613V17.2053C18.7332 17.4941 18.5008 17.7293 18.2154 17.7293H15.1087C14.8233 17.7293 14.5909 17.4941 14.5909 17.2053V14.0613ZM4.23522 14.0613C4.23522 13.7724 4.46758 13.5373 4.75301 13.5373H5.78858V14.5853C5.78858 14.8748 6.02029 15.1093 6.30636 15.1093C6.59244 15.1093 6.82415 14.8748 6.82415 14.5853V13.5373H7.85972C8.14515 13.5373 8.3775 13.7724 8.3775 14.0613V17.2053C8.3775 17.4941 8.14515 17.7293 7.85972 17.7293H4.75301C4.46758 17.7293 4.23522 17.4941 4.23522 17.2053V14.0613ZM30.6423 27.1613H2.68187V22.9693H30.6423V27.1613ZM30.6423 21.9213H2.68187C1.82558 21.9213 1.12851 21.2159 1.12851 20.3493C1.12851 19.4827 1.82558 18.7773 2.68187 18.7773H30.6423C31.4985 18.7773 32.1956 19.4827 32.1956 20.3493C32.1956 21.2159 31.4985 21.9213 30.6423 21.9213Z" fill="#F5F5F5"/>
<path d="M32.7135 0.961243H0.610803C0.324726 0.961243 0.0930176 1.19573 0.0930176 1.48524V3.58125C0.0930176 3.87076 0.324726 4.10525 0.610803 4.10525H5.78865V6.44492L4.46571 7.33703C4.32138 7.43397 4.2353 7.59772 4.2353 7.77326V8.82126C4.2353 8.96012 4.28966 9.09374 4.38675 9.19199L4.90453 9.71599C5.10647 9.92035 5.43462 9.92035 5.63655 9.71599C5.83849 9.51163 5.83849 9.17955 5.63655 8.97519L5.27022 8.60446V8.0536L6.30579 7.35471L7.34136 8.0536V8.60446L6.97503 8.97519C6.77309 9.17955 6.77309 9.51163 6.97503 9.71599C7.076 9.81817 7.20868 9.86926 7.34136 9.86926C7.47404 9.86926 7.60608 9.81817 7.70769 9.71599L8.22548 9.19199C8.32256 9.09374 8.37693 8.96012 8.37693 8.82126V7.77326C8.37693 7.59837 8.2902 7.43462 8.14652 7.33703L6.82358 6.44492V4.10525H16.1437V6.44492L14.8208 7.33703C14.6764 7.43397 14.5904 7.59772 14.5904 7.77326V8.82126C14.5904 8.96012 14.6447 9.09374 14.7418 9.19199L15.2596 9.71599C15.4615 9.92035 15.7897 9.92035 15.9916 9.71599C16.1935 9.51163 16.1935 9.17955 15.9916 8.97519L15.6253 8.60446V8.0536L16.6608 7.35471L17.6964 8.0536V8.60446L17.3301 8.97519C17.1281 9.17955 17.1281 9.51163 17.3301 9.71599C17.431 9.81817 17.5637 9.86926 17.6964 9.86926C17.8291 9.86926 17.9611 9.81817 18.0627 9.71599L18.5805 9.19199C18.6776 9.09374 18.732 8.96012 18.732 8.82126V7.77326C18.732 7.59837 18.6453 7.43462 18.5016 7.33703L17.1786 6.44492V4.10525H26.4988V6.44492L25.1758 7.33703C25.0315 7.43397 24.9454 7.59772 24.9454 7.77326V8.82126C24.9454 8.96012 24.9998 9.09374 25.0969 9.19199L25.6146 9.71599C25.8166 9.92035 26.1447 9.92035 26.3467 9.71599C26.5486 9.51163 26.5486 9.17955 26.3467 8.97519L25.9803 8.60446V8.0536L27.0159 7.35471L28.0515 8.0536V8.60446L27.6851 8.97519C27.4832 9.17955 27.4832 9.51163 27.6851 9.71599C27.7861 9.81817 27.9188 9.86926 28.0515 9.86926C28.1841 9.86926 28.3162 9.81817 28.4178 9.71599L28.9356 9.19199C29.0327 9.09374 29.087 8.96012 29.087 8.82126V7.77326C29.087 7.59837 29.0003 7.43462 28.8566 7.33703L27.5337 6.44492V4.10525H32.7115C32.9976 4.10525 33.2293 3.87076 33.2293 3.58125V1.48524C33.2293 1.19573 32.9976 0.961243 32.7115 0.961243H32.7135ZM32.1957 3.05725H1.12859V2.00925H32.1957V3.05725Z" fill="#F5F5F5"/>
<path d="M2.68185 20.8733C2.96781 20.8733 3.19963 20.6387 3.19963 20.3493C3.19963 20.0599 2.96781 19.8253 2.68185 19.8253C2.39588 19.8253 2.16406 20.0599 2.16406 20.3493C2.16406 20.6387 2.39588 20.8733 2.68185 20.8733Z" fill="#F5F5F5"/>
<path d="M5.78854 20.8733C6.0745 20.8733 6.30632 20.6387 6.30632 20.3493C6.30632 20.0599 6.0745 19.8253 5.78854 19.8253C5.50257 19.8253 5.27075 20.0599 5.27075 20.3493C5.27075 20.6387 5.50257 20.8733 5.78854 20.8733Z" fill="#F5F5F5"/>
<path d="M8.89547 20.8733C9.18144 20.8733 9.41326 20.6387 9.41326 20.3493C9.41326 20.0599 9.18144 19.8253 8.89547 19.8253C8.60951 19.8253 8.37769 20.0599 8.37769 20.3493C8.37769 20.6387 8.60951 20.8733 8.89547 20.8733Z" fill="#F5F5F5"/>
<path d="M12.0022 20.8733C12.2881 20.8733 12.5199 20.6387 12.5199 20.3493C12.5199 20.0599 12.2881 19.8253 12.0022 19.8253C11.7162 19.8253 11.4844 20.0599 11.4844 20.3493C11.4844 20.6387 11.7162 20.8733 12.0022 20.8733Z" fill="#F5F5F5"/>
<path d="M15.1088 20.8733C15.3948 20.8733 15.6266 20.6387 15.6266 20.3493C15.6266 20.0599 15.3948 19.8253 15.1088 19.8253C14.8229 19.8253 14.5911 20.0599 14.5911 20.3493C14.5911 20.6387 14.8229 20.8733 15.1088 20.8733Z" fill="#F5F5F5"/>
<path d="M18.2155 20.8733C18.5015 20.8733 18.7333 20.6387 18.7333 20.3493C18.7333 20.0599 18.5015 19.8253 18.2155 19.8253C17.9296 19.8253 17.6978 20.0599 17.6978 20.3493C17.6978 20.6387 17.9296 20.8733 18.2155 20.8733Z" fill="#F5F5F5"/>
<path d="M21.3222 20.8733C21.6082 20.8733 21.84 20.6387 21.84 20.3493C21.84 20.0599 21.6082 19.8253 21.3222 19.8253C21.0363 19.8253 20.8044 20.0599 20.8044 20.3493C20.8044 20.6387 21.0363 20.8733 21.3222 20.8733Z" fill="#F5F5F5"/>
<path d="M24.4289 20.8733C24.7149 20.8733 24.9467 20.6387 24.9467 20.3493C24.9467 20.0599 24.7149 19.8253 24.4289 19.8253C24.143 19.8253 23.9111 20.0599 23.9111 20.3493C23.9111 20.6387 24.143 20.8733 24.4289 20.8733Z" fill="#F5F5F5"/>
<path d="M27.5356 20.8733C27.8216 20.8733 28.0534 20.6387 28.0534 20.3493C28.0534 20.0599 27.8216 19.8253 27.5356 19.8253C27.2496 19.8253 27.0178 20.0599 27.0178 20.3493C27.0178 20.6387 27.2496 20.8733 27.5356 20.8733Z" fill="#F5F5F5"/>
<path d="M30.6423 20.8733C30.9283 20.8733 31.1601 20.6387 31.1601 20.3493C31.1601 20.0599 30.9283 19.8253 30.6423 19.8253C30.3563 19.8253 30.1245 20.0599 30.1245 20.3493C30.1245 20.6387 30.3563 20.8733 30.6423 20.8733Z" fill="#F5F5F5"/>
</g>
<defs>
<clipPath id="clip0_23_4455">
<rect width="33.1395" height="27.2481" fill="white" transform="translate(0.0930176 0.961243)"/>
</clipPath>
</defs>
</svg>
