<svg width="33" height="34" viewBox="0 0 33 34" fill="none" xmlns="http://www.w3.org/2000/svg">
<g clip-path="url(#clip0_23_4453)">
<path d="M31.3377 11.1108C31.9858 9.79949 32.4263 8.554 32.4263 7.58697C32.4263 3.82011 29.3581 0.751938 25.5913 0.751938C24.2546 0.751938 23.0091 1.13672 21.956 1.79998C20.1739 1.12154 18.2398 0.751938 16.2247 0.751938C12.8528 0.751938 9.71375 1.78985 7.11643 3.56189C6.57976 3.07078 5.86588 2.77713 5.08618 2.77713C3.41033 2.77713 2.04839 4.13907 2.04839 5.81492C2.04839 6.59462 2.34204 7.3085 2.83315 7.84518C1.06111 10.4425 0.0231934 13.5815 0.0231934 16.9535C0.0231934 20.3254 1.06111 23.4645 2.83315 26.0618C2.34204 26.5985 2.04839 27.3124 2.04839 28.0921C2.04839 29.7679 3.41033 31.1298 5.08618 31.1298C5.86588 31.1298 6.57976 30.8362 7.11643 30.3451C9.71375 32.1171 12.8528 33.155 16.2247 33.155C19.5967 33.155 22.7357 32.1171 25.3331 30.3451C25.8697 30.8362 26.5836 31.1298 27.3633 31.1298C29.0392 31.1298 30.4011 29.7679 30.4011 28.0921C30.4011 27.3124 30.1074 26.5985 29.6163 26.0618C31.3884 23.4645 32.4263 20.3254 32.4263 16.9535C32.4263 14.8929 32.0415 12.9234 31.3377 11.1108ZM22.0826 2.94421C22.4117 2.69106 22.7661 2.47842 23.1458 2.30627C23.8901 1.95693 24.7204 1.76453 25.5913 1.76453C28.8012 1.76453 31.4137 4.37703 31.4137 7.58697C31.4137 8.20971 31.1808 8.99954 30.796 9.8805C30.634 10.2602 30.4365 10.6551 30.2239 11.0652C29.1556 13.0904 27.5709 15.3384 26.3507 16.9484V16.9535C26.0722 17.313 25.8191 17.637 25.5913 17.9205C25.5103 17.8193 25.4191 17.7028 25.3179 17.5712C24.447 16.4573 22.8826 14.3815 21.6371 12.2854C21.6168 12.25 21.5966 12.2196 21.5763 12.1842C20.8979 11.0247 20.4017 10.0121 20.1081 9.17168C20.0422 8.98435 19.9865 8.80715 19.9359 8.635C19.8245 8.23503 19.7688 7.88568 19.7688 7.58697V7.46546C19.8093 5.62253 20.7105 3.98212 22.0826 2.94421ZM16.2247 10.8323C14.8096 10.8323 13.4711 11.0001 12.2592 11.3038C13.1876 9.19763 14.6185 7.83948 16.2247 7.83948C17.1209 7.83948 17.9867 7.97112 18.8069 8.21414C18.8727 8.60906 18.9891 9.03941 19.1562 9.51027C19.3385 10.0318 19.5916 10.614 19.9106 11.2469C18.7442 10.9741 17.4911 10.8311 16.2241 10.8311V10.8323H16.2247ZM20.5802 12.4848C20.6055 12.5348 20.6352 12.5797 20.665 12.6297C20.6662 12.6322 20.6675 12.6341 20.6688 12.6367C21.0725 13.948 21.2877 15.4384 21.2877 16.9535C21.2877 18.4686 21.0643 20.0103 20.6719 21.3045C19.341 21.7291 17.819 21.9709 16.2247 21.9709C14.6305 21.9709 13.0958 21.731 11.7813 21.3165C11.3864 20.0198 11.1618 18.5331 11.1618 16.9535C11.1618 15.3738 11.3978 13.8284 11.8073 12.5133C13.1243 12.0911 14.6324 11.8449 16.2247 11.8449C17.8171 11.8449 19.2505 12.0696 20.5802 12.4848ZM11.0168 11.6874C9.70678 12.1557 8.59609 12.7949 7.76893 13.5626C7.76893 13.5626 7.76893 13.5613 7.76956 13.5607V13.5556C8.70052 11.2526 10.5428 9.41027 12.8503 8.48881C12.1022 9.30901 11.4782 10.4033 11.0168 11.6874ZM10.6226 12.9639C10.3175 14.1828 10.1492 15.5289 10.1492 16.9529C10.1492 18.3768 10.3124 19.6736 10.6074 20.8741C8.50939 19.9457 7.15694 18.5142 7.15694 16.9073C7.15694 15.3004 8.52837 13.9005 10.6226 12.9639ZM10.9789 22.1139C11.4434 23.4436 12.0813 24.5745 12.8496 25.4169C10.4915 24.4746 8.61951 22.5721 7.70817 20.1982C7.7069 20.1951 7.70627 20.1919 7.70501 20.1887C8.53091 20.9767 9.64983 21.6336 10.9782 22.1139H10.9789ZM12.2161 22.4987C13.4395 22.8101 14.7919 22.9829 16.2241 22.9829C17.6563 22.9829 19.0005 22.8082 20.2359 22.4899C19.3094 24.6593 17.8582 26.0662 16.2241 26.0662C14.59 26.0662 13.1427 24.6631 12.2161 22.4987ZM21.4725 22.1076C22.7952 21.6266 23.9198 20.964 24.7533 20.1647C24.7521 20.1672 24.7514 20.1704 24.7508 20.1729C23.8452 22.562 21.9624 24.4695 19.5992 25.4169C20.3694 24.5733 21.0074 23.4404 21.4725 22.1076ZM21.8453 20.8589C22.1377 19.6622 22.3003 18.3452 22.3003 16.9529C22.3003 16.2852 22.2535 15.6365 22.1801 14.9998C22.1832 15.0042 22.1864 15.0093 22.1889 15.0137C23.2306 16.5358 24.2464 17.8503 24.7888 18.5395C24.2084 19.4711 23.1718 20.2678 21.8453 20.8589ZM5.08618 3.78973C5.52666 3.78973 5.93676 3.93149 6.27092 4.17452C6.54938 4.37703 6.77721 4.64537 6.91898 4.96434C7.04555 5.22255 7.11137 5.51114 7.11137 5.81492C7.11137 6.93384 6.2051 7.84012 5.08618 7.84012C4.7824 7.84012 4.49381 7.7743 4.2356 7.64772C3.91663 7.50596 3.64829 7.27812 3.44577 6.99966C3.20275 6.6655 3.06098 6.2554 3.06098 5.81492C3.06098 4.696 3.96726 3.78973 5.08618 3.78973ZM6.91898 28.9426C6.77721 29.2616 6.54938 29.5299 6.27092 29.7325C5.93676 29.9755 5.52666 30.1172 5.08618 30.1172C3.96726 30.1172 3.06098 29.211 3.06098 28.0921C3.06098 27.6516 3.20275 27.2415 3.44577 26.9073C3.64829 26.6289 3.91663 26.401 4.2356 26.2593C4.49381 26.1327 4.7824 26.0669 5.08618 26.0669C6.2051 26.0669 7.11137 26.9731 7.11137 28.0921C7.11137 28.3958 7.04555 28.6844 6.91898 28.9426ZM27.3633 30.1172C26.9228 30.1172 26.5127 29.9755 26.1786 29.7325C25.9001 29.5299 25.6723 29.2616 25.5305 28.9426C25.4039 28.6844 25.3381 28.3958 25.3381 28.0921C25.3381 26.9731 26.2444 26.0669 27.3633 26.0669C27.6671 26.0669 27.9557 26.1327 28.2139 26.2593C28.5329 26.401 28.8012 26.6289 29.0037 26.9073C29.2467 27.2415 29.3885 27.6516 29.3885 28.0921C29.3885 29.211 28.4822 30.1172 27.3633 30.1172ZM28.8265 25.4289C28.3911 25.191 27.8949 25.0543 27.3633 25.0543C25.6875 25.0543 24.3255 26.4162 24.3255 28.0921C24.3255 28.6237 24.4622 29.1198 24.7002 29.5553C22.2801 31.1855 19.3587 32.1424 16.2247 32.1424C13.0908 32.1424 10.1694 31.1855 7.74931 29.5553C7.98727 29.1198 8.12397 28.6237 8.12397 28.0921C8.12397 26.4162 6.76203 25.0543 5.08618 25.0543C4.55456 25.0543 4.05839 25.191 3.62298 25.4289C1.99269 23.0088 1.03579 20.0875 1.03579 16.9535C1.03579 13.8195 1.99269 10.8982 3.62298 8.47805C4.05839 8.71601 4.55456 8.85271 5.08618 8.85271C6.76203 8.85271 8.12397 7.49077 8.12397 5.81492C8.12397 5.28331 7.98727 4.78714 7.74931 4.35172C10.1694 2.72144 13.0908 1.76453 16.2247 1.76453C17.8905 1.76453 19.4954 2.03287 20.9941 2.53411C19.7233 3.69353 18.8879 5.32888 18.7714 7.15155C17.9563 6.9389 17.1006 6.82752 16.2247 6.82752C10.6403 6.82752 6.09877 11.369 6.09877 16.9535C6.09877 22.538 10.6403 27.0795 16.2247 27.0795C21.1763 27.0795 25.3128 23.505 26.1786 18.8015C26.8671 17.9509 29.0948 15.1308 30.6897 12.3209C31.1605 13.779 31.4137 15.3384 31.4137 16.9535C31.4137 20.0875 30.4568 23.0088 28.8265 25.4289ZM25.5913 10.6248C27.0798 10.6248 28.3202 9.5514 28.5784 8.13377C28.6139 7.95656 28.6291 7.7743 28.6291 7.58697C28.6291 7.04016 28.4822 6.52374 28.224 6.0782C28.224 6.07313 28.224 6.06807 28.2139 6.06301C27.9506 5.60734 27.5709 5.22762 27.1152 4.96434C27.1102 4.95421 27.1051 4.95422 27.1 4.95422C26.6596 4.696 26.1431 4.54918 25.5913 4.54918C25.4039 4.54918 25.2217 4.56436 25.0445 4.59981C23.6268 4.85802 22.5535 6.09845 22.5535 7.58697C22.5535 8.42742 22.8927 9.18687 23.4446 9.73367C23.9914 10.2855 24.7508 10.6248 25.5913 10.6248ZM25.5913 5.56177C25.9204 5.56177 26.2292 5.63772 26.5026 5.77948C26.8925 5.97187 27.2064 6.28578 27.3987 6.67563C27.5405 6.94903 27.6165 7.25787 27.6165 7.58697C27.6165 8.70589 26.7102 9.61216 25.5913 9.61216C24.4723 9.61216 23.5661 8.70589 23.5661 7.58697C23.5661 6.46805 24.4723 5.56177 25.5913 5.56177Z" fill="#F5F5F5"/>
</g>
<defs>
<clipPath id="clip0_23_4453">
<rect width="32.4031" height="32.4031" fill="white" transform="translate(0.0231934 0.751938)"/>
</clipPath>
</defs>
</svg>
