<svg width="28" height="28" viewBox="0 0 28 28" fill="none" xmlns="http://www.w3.org/2000/svg">
<g clip-path="url(#clip0_23_4446)">
<path d="M24.1807 19.0171H20.3557C20.1684 19.0171 20.0151 19.1703 20.0151 19.3577V24.075C20.0151 24.2623 20.1684 24.4156 20.3557 24.4156H24.1807C24.368 24.4156 24.5213 24.2623 24.5213 24.075V19.3577C24.5213 19.1703 24.368 19.0171 24.1807 19.0171ZM23.8401 23.7344H20.6963V19.6983H23.8401V23.7344Z" fill="#F5F5F5"/>
<path d="M22.2665 11.8031C21.0233 11.8031 20.0117 12.8147 20.0117 14.0579V16.7759C20.0117 16.9632 20.165 17.1165 20.3523 17.1165H24.1773C24.3646 17.1165 24.5179 16.9632 24.5179 16.7759V14.0579C24.5179 12.8147 23.5063 11.8031 22.2631 11.8031H22.2665ZM23.8401 16.4319H20.6963V14.0545C20.6963 13.1894 21.4014 12.4809 22.2699 12.4809C23.1384 12.4809 23.8435 13.186 23.8435 14.0545V16.4319H23.8401Z" fill="#F5F5F5"/>
<path d="M1.8579 10.0422V27.3958C1.8579 27.5832 2.01117 27.7364 2.1985 27.7364H26.2619C26.4493 27.7364 26.6026 27.5832 26.6026 27.3958V10.0422C27.3451 9.67438 27.856 8.90802 27.856 8.00543L27.1748 0.79832C27.1577 0.624613 27.0113 0.488373 26.8342 0.488373H1.62629C1.44918 0.488373 1.30272 0.621207 1.28569 0.79832L0.604492 8.03609C0.604492 8.91824 1.11539 9.67778 1.8579 10.0422ZM1.28569 8.06674L1.31635 7.74317H4.40219V8.03609C4.40219 8.8944 3.70396 9.59263 2.84565 9.59263C1.98733 9.59263 1.2891 8.8944 1.28569 8.06674ZM23.3771 8.03609C23.3771 8.8944 22.6788 9.59263 21.8205 9.59263C20.9622 9.59263 20.264 8.8944 20.264 8.03609V7.74317H23.3771V8.03609ZM8.32251 20.4271V27.0552H5.83271V20.4271H8.32251ZM9.00371 20.4271H11.4935V27.0552H9.00371V20.4271ZM12.1747 20.4271H14.6645V27.0552H12.1747V20.4271ZM15.3457 20.4271H17.8661V27.0552H15.3457V20.4271ZM18.0262 9.59263C17.1679 9.59263 16.4697 8.8944 16.4697 8.03609V7.74317H19.5828V8.03609C19.5828 8.8944 18.8845 9.59263 18.0262 9.59263ZM5.07999 7.74317H8.19308V8.03609C8.19308 8.8944 7.49485 9.59263 6.63653 9.59263C5.77822 9.59263 5.07999 8.8944 5.07999 8.03609V7.74317ZM8.87769 7.74317H11.9908V8.03609C11.9908 8.8944 11.2925 9.59263 10.4342 9.59263C9.57592 9.59263 8.87769 8.8944 8.87769 8.03609V7.74317ZM12.672 7.74317H15.7851V8.03609C15.7851 8.8944 15.0868 9.59263 14.2285 9.59263C13.3702 9.59263 12.672 8.8944 12.672 8.03609V7.74317ZM16.4663 7.06197V1.16957H19.5794V7.06197H16.4663ZM15.7851 7.06197H12.672V1.16957H15.7851V7.06197ZM11.9908 7.06197H8.87769V1.16957H11.9908V7.06197ZM8.19648 7.06197H5.08339V1.16957H8.19648V7.06197ZM2.84224 10.2738C3.64265 10.2738 4.34429 9.85149 4.73939 9.21797C5.13448 9.85149 5.83612 10.2738 6.63653 10.2738C7.43694 10.2738 8.13858 9.85149 8.53368 9.21797C8.92878 9.85149 9.63041 10.2738 10.4308 10.2738C11.2312 10.2738 11.9329 9.85149 12.328 9.21797C12.7231 9.85149 13.4247 10.2738 14.2251 10.2738C15.0255 10.2738 15.7272 9.85149 16.1223 9.21797C16.4901 9.81062 17.127 10.2159 17.8593 10.267V19.7459H2.5391V10.2534C2.63788 10.267 2.74006 10.2772 2.84224 10.2772V10.2738ZM2.5391 20.4271H5.15151V27.0552H2.5391V20.4271ZM25.9213 27.0552H18.5473V10.2091C19.1264 10.0695 19.6168 9.70844 19.9234 9.21457C20.3185 9.84808 21.0201 10.2704 21.8205 10.2704C22.6209 10.2704 23.3226 9.84808 23.7177 9.21457C24.1128 9.84808 24.8144 10.2704 25.6148 10.2704C25.717 10.2704 25.8192 10.2602 25.9179 10.2466V27.0518L25.9213 27.0552ZM25.6148 9.59263C24.7565 9.59263 24.0583 8.8944 24.0583 8.03609V7.74317H27.1441L27.1714 8.03609C27.1714 8.8944 26.4731 9.59263 25.6148 9.59263ZM26.5242 1.16957L27.0828 7.06197H24.0617V1.16957H26.5242ZM23.3771 7.06197H20.264V1.16957H23.3771V7.06197ZM1.93624 1.16957H4.39879V7.06197H1.37766L1.93624 1.16957Z" fill="#F5F5F5"/>
</g>
<defs>
<clipPath id="clip0_23_4446">
<rect width="27.2481" height="27.2481" fill="white" transform="translate(0.604492 0.488373)"/>
</clipPath>
</defs>
</svg>
