<svg width="29" height="28" viewBox="0 0 29 28" fill="none" xmlns="http://www.w3.org/2000/svg">
<g clip-path="url(#clip0_23_4421)">
<path d="M28.6202 7.89179V5.12042L15.2373 0.0470983L15.1606 0.0155029H14.0909L0.635742 5.12042V7.89179L1.53847 7.54875V27.0973H0.635742V28H28.6202V27.0973H27.7175V7.54875L28.6202 7.89179ZM1.53847 5.7433L14.2579 0.918229H14.9936L27.713 5.7433V6.58283L15.2328 1.85255L15.1561 1.82095H14.0864L1.53847 6.58283V5.7433ZM22.7525 27.0973H6.50346V12.6537H22.7525V27.0973ZM26.8148 27.0973H23.6552V11.7509H5.60073V27.0973H2.44119V7.20571L14.2579 2.72368H14.9936L26.8103 7.20571V27.0973H26.8148Z" fill="#F5F5F5"/>
<path d="M7.40625 10.8482H21.8499V6.33458H7.40625V10.8482ZM8.30898 7.23731H20.9471V9.94548H8.30898V7.23731Z" fill="#F5F5F5"/>
<path d="M20.0443 8.14003H19.1416V9.04276H20.0443V8.14003Z" fill="#F5F5F5"/>
<path d="M18.2389 8.14003H9.21167V9.04276H18.2389V8.14003Z" fill="#F5F5F5"/>
<path d="M21.8499 17.1673H7.40625V26.1946H21.8499V17.1673ZM10.1144 18.07H11.0172V20.7782H10.1144V18.07ZM8.30898 18.07H9.2117V21.6809H11.9199V18.07H12.8226V25.2918H8.30898V18.07ZM20.9471 25.2918H13.7253V18.07H20.9471V25.2918Z" fill="#F5F5F5"/>
<path d="M15.5307 23.4864H14.6279V24.3891H15.5307V23.4864Z" fill="#F5F5F5"/>
<path d="M17.3361 23.4864H16.4333V24.3891H17.3361V23.4864Z" fill="#F5F5F5"/>
<path d="M15.5307 21.6809H14.6279V22.5836H15.5307V21.6809Z" fill="#F5F5F5"/>
</g>
<defs>
<clipPath id="clip0_23_4421">
<rect width="27.9845" height="27.9845" fill="white" transform="translate(0.635742 0.0155029)"/>
</clipPath>
</defs>
</svg>
